<!DOCTYPE svg PUBLIC "-//W3C//DTD SVG 1.1//EN" "http://www.w3.org/Graphics/SVG/1.1/DTD/svg11.dtd">
<!-- Uploaded to: SVG Repo, www.svgrepo.com, Transformed by: SVG Repo Mixer Tools -->
<svg fill="#ffffff" height="800px" width="800px" version="1.1" id="Capa_1" xmlns="http://www.w3.org/2000/svg" xmlns:xlink="http://www.w3.org/1999/xlink" viewBox="0 0 493.68 493.68" xml:space="preserve" stroke="#ffffff">
<g id="SVGRepo_bgCarrier" stroke-width="0"/>
<g id="SVGRepo_tracerCarrier" stroke-linecap="round" stroke-linejoin="round"/>
<g id="SVGRepo_iconCarrier"> <g> <path d="M181.635,114.208c-18.21,0-32.97,14.761-32.97,32.97c0,18.204,14.76,32.969,32.97,32.969 c43.933,0,79.687,35.721,79.687,79.623c0,18.205,14.761,32.971,32.971,32.971c18.204,0,32.971-14.766,32.971-32.971 C327.263,179.499,261.93,114.208,181.635,114.208z"/> <path d="M158.372,0c-0.018,0-0.051,0-0.063,0c-18.228,0-32.97,14.768-32.97,32.971c0,18.209,14.762,32.969,32.97,32.969 c0.028,0,0.028,0,0.063,0c119.69,0,217.105,97.418,217.152,217.158c0,18.203,14.76,32.953,32.97,32.953h0.018 c18.204,0,32.953-14.777,32.953-32.988C441.419,126.971,314.429,0,158.372,0z"/> <path d="M212.673,324.836c21.652-26.961,20.298-66.321-4.719-91.338c-26.834-26.852-70.35-26.852-97.173,0 c-24.646,24.645-26.384,63.219-5.729,90.137L53.455,466.059c-3.878,10.703,1.644,22.522,12.345,26.383 c2.323,0.85,4.689,1.238,7.023,1.238c8.42,0,16.34-5.197,19.367-13.584l47.973-132.395c12.137,3.525,24.906,3.65,37.092,0.369 l47.844,132.025c3.027,8.387,10.946,13.584,19.368,13.584c2.333,0,4.7-0.389,7.015-1.238c10.708-3.861,16.23-15.68,12.353-26.383 L212.673,324.836z"/> </g> </g>
</svg>