<?xml version="1.0" encoding="UTF-8"?>
<!DOCTYPE svg  PUBLIC '-//W3C//DTD SVG 1.1//EN'  'http://www.w3.org/Graphics/SVG/1.1/DTD/svg11.dtd'>
<svg width="800px" height="800px" fill="#aeadad" stroke="#aeadad" version="1.1" viewBox="-4 0 32 32" xmlns="http://www.w3.org/2000/svg">
<g>
<title>location</title>
<desc>Created with Sketch Beta.</desc>
<g fill="none" fill-rule="evenodd" stroke="none">
<g transform="translate(-104 -411)" fill="#473e3e">
<path d="m116 426c-1.657 0-3-1.343-3-3s1.343-3 3-3 3 1.343 3 3-1.343 3-3 3zm0-8c-2.761 0-5 2.238-5 5s2.239 5 5 5 5-2.238 5-5-2.239-5-5-5zm0 22c-1.663 9e-3 -10-12.819-10-17 0-5.522 4.477-10 10-10s10 4.478 10 10c0 4.125-8.363 17.009-10 17zm0-29c-6.627 0-12 5.373-12 12 0 5.018 10.005 20.011 12 20 1.964 0.011 12-15.05 12-20 0-6.627-5.373-12-12-12z"></path>
</g>
</g>
</g>
</svg>
