<?xml version="1.0" encoding="UTF-8"?>
<!DOCTYPE svg  PUBLIC '-//W3C//DTD SVG 1.1//EN'  'http://www.w3.org/Graphics/SVG/1.1/DTD/svg11.dtd'>
<svg width="800px" height="800px" fill="#ffffff" stroke="#ffffff" version="1.1" viewBox="-4 0 32 32" xmlns="http://www.w3.org/2000/svg">
<g>
<title>bag</title>
<desc>Created with Sketch Beta.</desc>
<g fill="none" fill-rule="evenodd" stroke="none">
<g transform="translate(-572 -723)" fill="#fff">
<path d="m594 747h-20v-16c0-1.104 0.896-2 2-2h2v6h2v-6h8v6h2v-6h2c1.104 0 2 0.896 2 2v16zm0 4c0 1.104-0.896 2-2 2h-16c-1.104 0-2-0.896-2-2v-2h20v2zm-10-26c2.209 0 4 0.619 4 2h-8c0-1.381 1.791-2 4-2zm8 2h-2c0-2.209-2.687-4-6-4s-6 1.791-6 4h-2c-2.209 0-4 1.791-4 4v20c0 2.209 1.791 4 4 4h16c2.209 0 4-1.791 4-4v-20c0-2.209-1.791-4-4-4z"></path>
</g>
</g>
</g>
</svg>
